<?xml version="1.0" encoding="utf-8"?>
<!-- Svg Vector Icons : http://www.onlinewebfonts.com/icon -->
<!DOCTYPE svg PUBLIC "-//W3C//DTD SVG 1.1//EN" "http://www.w3.org/Graphics/SVG/1.1/DTD/svg11.dtd">
<svg version="1.1" xmlns="http://www.w3.org/2000/svg" xmlns:xlink="http://www.w3.org/1999/xlink" x="0px" y="0px" viewBox="0 0 256 256" enable-background="new 0 0 256 256" xml:space="preserve">
<metadata> Svg Vector Icons : http://www.onlinewebfonts.com/icon </metadata>
<g><g><path fill="#000000" d="M29.6,232.1l5.8-46.2C19,168.3,10,146.4,10,123.9c0-55.1,52.9-100,118-100c65.1,0,118,44.8,118,100s-52.9,100-118,100c-19.1,0-38.1-4-55-11.5L29.6,232.1z M128,33.3c-59.9,0-108.7,40.7-108.7,90.6c0,20.7,8.6,41,24.3,57.1l1.6,1.6l-4.3,34.1L71.1,203l1.7,3.7L75,203c16.1,7.5,34.5,11.5,53,11.5c59.9,0,108.7-40.7,108.7-90.6C236.7,73.9,187.9,33.3,128,33.3"/></g></g>
</svg>